<?xml version="1.0" encoding="UTF-8"?>
<svg width="108" height="108" version="1.1" viewBox="0 0 28.574999 28.575001" xmlns="http://www.w3.org/2000/svg">
 <rect x="-3.8146973e-7" y="-3.8146973e-7" width="28.575001" height="28.575001" fill="#1b1b1b"/>
 <g transform="matrix(.13541667 0 0 .13541667 5.1152775 -16.759024)" fill="#8bc34a" aria-label="O">
  <path d="m107.49724 232.45861q0 14.53369-4.88984 25.4-4.889842 10.7984-13.854548 16.50321-8.964707 5.70481-20.917648 5.70481-11.681284 0-20.713905-5.70481-9.032621-5.77273-14.058289-16.36738-4.957755-10.66257-5.093583-24.65294v-7.13102q0-14.26203 4.957754-25.19626 4.957754-10.93422 13.990375-16.70695 9.100535-5.84064 20.781819-5.84064 11.885027 0 20.917648 5.77273 9.100535 5.70481 13.990377 16.63903 4.88984 10.86631 4.88984 25.33209zm-12.971661-6.38396q0-17.58984-7.063102-26.96203-7.063102-9.44011-19.763102-9.44011-12.360429 0-19.491445 9.44011-7.063102 9.37219-7.266845 26.07914v7.26685q0 17.04652 7.131016 26.8262 7.198931 9.71177 19.763103 9.71177 12.632086 0 19.559359-9.16845 6.927273-9.23637 7.131016-26.41872z" fill="#8bc34a" stroke-width="3.4772191px"/>
 </g>
</svg>
