<?xml version="1.0" encoding="UTF-8" standalone="no"?>
<svg
   xmlns:dc="http://purl.org/dc/elements/1.1/"
   xmlns:cc="http://creativecommons.org/ns#"
   xmlns:rdf="http://www.w3.org/1999/02/22-rdf-syntax-ns#"
   xmlns:svg="http://www.w3.org/2000/svg"
   xmlns="http://www.w3.org/2000/svg"
   xmlns:sodipodi="http://sodipodi.sourceforge.net/DTD/sodipodi-0.dtd"
   xmlns:inkscape="http://www.inkscape.org/namespaces/inkscape"
   width="1024"
   height="500"
   version="1.1"
   viewBox="0 0 270.93332 132.29167"
   id="svg8"
   sodipodi:docname="promotional_graphic.svg"
   inkscape:version="0.92.4 (5da689c313, 2019-01-14)">
  <metadata
     id="metadata14">
    <rdf:RDF>
      <cc:Work
         rdf:about="">
        <dc:format>image/svg+xml</dc:format>
        <dc:type
           rdf:resource="http://purl.org/dc/dcmitype/StillImage" />
        <dc:title />
      </cc:Work>
    </rdf:RDF>
  </metadata>
  <defs
     id="defs12">
    <filter
       inkscape:collect="always"
       style="color-interpolation-filters:sRGB"
       id="filter841"
       x="-0.023999999"
       width="1.048"
       y="-0.024000001"
       height="1.048">
      <feGaussianBlur
         inkscape:collect="always"
         stdDeviation="0.9260416"
         id="feGaussianBlur843" />
    </filter>
  </defs>
  <sodipodi:namedview
     pagecolor="#ffffff"
     bordercolor="#666666"
     borderopacity="1"
     objecttolerance="10"
     gridtolerance="10"
     guidetolerance="10"
     inkscape:pageopacity="0"
     inkscape:pageshadow="2"
     inkscape:window-width="1920"
     inkscape:window-height="1017"
     id="namedview10"
     showgrid="false"
     inkscape:snap-bbox="true"
     inkscape:bbox-paths="true"
     inkscape:bbox-nodes="true"
     inkscape:snap-bbox-edge-midpoints="true"
     inkscape:snap-bbox-midpoints="true"
     inkscape:snap-object-midpoints="true"
     inkscape:snap-center="true"
     inkscape:snap-page="true"
     inkscape:zoom="1"
     inkscape:cx="490.30854"
     inkscape:cy="262.67229"
     inkscape:window-x="-8"
     inkscape:window-y="-8"
     inkscape:window-maximized="1"
     inkscape:current-layer="svg8" />
  <rect
     style="opacity:0.5;fill:#8bc34a;fill-opacity:1;stroke:none;stroke-width:0.37528056;stroke-linecap:square;stroke-miterlimit:4;stroke-dasharray:none;stroke-dashoffset:0;stroke-opacity:1"
     id="rect821"
     width="270.93332"
     height="132.29167"
     x="0"
     y="0" />
  <rect
     ry="17.148918"
     rx="17.148918"
     style="opacity:0.5;fill:#000000;fill-opacity:1;stroke-width:3.24074054;filter:url(#filter841)"
     id="rect818"
     height="92.604156"
     width="92.604164"
     y="20.372921"
     x="11.133581" />
  <g
     id="g826"
     transform="matrix(3.2407406,0,0,3.2407406,10.604416,-316.27506)">
    <rect
       ry="5.2916665"
       rx="5.2916665"
       style="fill:#1b1b1b"
       id="rect2"
       height="28.574999"
       width="28.575001"
       y="103.71667"
       x="-3.8146973e-07" />
    <g
       style="fill:#8bc34a"
       id="g6"
       aria-label="O"
       transform="matrix(0.13541667,0,0,0.13541667,5.1152775,86.957642)">
      <path
         style="fill:#8bc34a;stroke-width:3.4772191px"
         inkscape:connector-curvature="0"
         id="path4"
         d="m 107.49724,232.45861 q 0,14.53369 -4.88984,25.4 -4.889842,10.7984 -13.854548,16.50321 -8.964707,5.70481 -20.917648,5.70481 -11.681284,0 -20.713905,-5.70481 -9.032621,-5.77273 -14.058289,-16.36738 -4.957755,-10.66257 -5.093583,-24.65294 v -7.13102 q 0,-14.26203 4.957754,-25.19626 4.957754,-10.93422 13.990375,-16.70695 9.100535,-5.84064 20.781819,-5.84064 11.885027,0 20.917648,5.77273 9.100535,5.70481 13.990377,16.63903 4.88984,10.86631 4.88984,25.33209 z m -12.971661,-6.38396 q 0,-17.58984 -7.063102,-26.96203 -7.063102,-9.44011 -19.763102,-9.44011 -12.360429,0 -19.491445,9.44011 -7.063102,9.37219 -7.266845,26.07914 v 7.26685 q 0,17.04652 7.131016,26.8262 7.198931,9.71177 19.763103,9.71177 12.632086,0 19.559359,-9.16845 6.927273,-9.23637 7.131016,-26.41872 z" />
    </g>
  </g>
  <text
     xml:space="preserve"
     style="font-style:normal;font-variant:normal;font-weight:normal;font-stretch:normal;font-size:22.57777786px;line-height:125%;font-family:Roboto;-inkscape-font-specification:Roboto;letter-spacing:0px;word-spacing:0px;fill:#000000;fill-opacity:1;stroke:none;stroke-width:0.26458332px;stroke-linecap:butt;stroke-linejoin:miter;stroke-opacity:1"
     x="115.5715"
     y="74.502258"
     id="text830"><tspan
       sodipodi:role="line"
       id="tspan828"
       x="115.5715"
       y="74.502258"
       style="font-size:22.57777786px;stroke-width:0.26458332px">Share2Outline</tspan></text>
</svg>
